<svg xmlns="http://www.w3.org/2000/svg" viewBox="0 0 333.815 333.815" style="enable-background:new 0 0 333.815 333.815" xml:space="preserve">
  <path style="fill:#f3d8b6" d="M250.097 238.262c-18.667-6.681-51.458-11.736-51.458-81.376h-63.462c0 69.64-32.791 74.695-51.458 81.376 0 47.368 68.832 48.824 80.688 53.239v1.537s.922-.188 2.501-.68c1.579.492 2.501.68 2.501.68v-1.537c11.856-4.415 80.688-5.871 80.688-53.239z"/>
  <path style="fill:#eec8a2" d="M198.639 156.886h-32.064v135.573c.11-.033.216-.064.333-.101 1.579.492 2.501.68 2.501.68V291.5c11.856-4.414 80.688-5.871 80.688-53.238-18.667-6.681-51.458-11.736-51.458-81.376z"/>
  <ellipse transform="rotate(-69.249 228.547 113.024)" style="fill:#edceae" cx="228.54" cy="113.021" rx="17.187" ry="10.048"/>
  <ellipse transform="rotate(69.249 104.191 113.032)" style="fill:#f3dbc4" cx="104.188" cy="113.029" rx="17.187" ry="10.048"/>
  <path style="fill:#f3dbc4" d="M166.91 180.733c-27.454 0-48.409-23.119-57.799-40.456s-15.888-79.445 4.34-106.897c19.808-26.883 53.459-13.838 53.459-13.838s33.649-13.045 53.458 13.838c20.226 27.452 13.726 89.56 4.335 106.897-9.392 17.337-30.344 40.456-57.793 40.456z"/>
  <path style="fill:#edceae" d="M220.368 33.381c-19.81-26.884-53.458-13.838-53.458-13.838s-.118-.045-.335-.123v161.305c.112.001.222.009.335.009 27.449 0 48.401-23.119 57.794-40.456 9.39-17.337 15.891-79.445-4.336-106.897z"/>
  <path style="fill:#545465" d="M286.89 293.134v40.681H46.926v-40.681c0-30.431 17.377-56.963 40.605-70.913 6.043-3.641 19.69-7.43 26.844-9.196 5.953-1.488 53.438 22.729 53.438 22.729s48.674-23.218 54.627-21.729c7.154 1.766 17.802 4.554 23.844 8.196 23.229 13.95 40.606 40.481 40.606 70.913z"/>
  <path style="fill:#494857" d="M246.285 222.22c-6.043-3.641-16.69-6.429-23.844-8.196-5.953-1.488-54.627 21.729-54.627 21.729s-.442-.225-1.239-.627v98.688H286.89v-40.681c0-30.43-17.377-56.962-40.605-70.913z"/>
  <path style="fill:#d7734a" d="m188.575 240.372-21.667-6.834-21.667 6.834 14.314 10.992-8.98 82.45h32.666l-8.98-82.45z"/>
  <path style="fill:#d35d3b" d="m188.575 240.372-21.667-6.834-.333.105v100.171h16.666l-8.98-82.45z"/>
  <path style="fill:#fff" d="m215.075 209.247-48.167 23.441-48.167-23.441c-11.5 5.5 10.396 38.436 14.833 36.833 10.963-3.96 33.334-10.329 33.334-10.329s22.371 6.369 33.334 10.329c4.437 1.603 26.333-31.333 14.833-36.833z"/>
  <path style="fill:#dedde0" d="m215.075 209.247-48.167 23.441-.333-.162v3.321l.333-.095s22.371 6.369 33.334 10.329c4.437 1.602 26.333-31.334 14.833-36.834z"/>
  <path style="fill:#e1a98c" d="m183.075 160.793-16.452-3.907-15.881 3.907 2.282 20.541c4.299 1.752 8.946 2.791 13.886 2.791 4.938 0 9.585-1.039 13.883-2.791l2.282-20.541z"/>
  <path style="fill:#d2987b" d="m166.623 156.886-.048.012v27.219c.112.001.222.009.334.009 4.938 0 9.585-1.039 13.883-2.791l2.282-20.542-16.451-3.907z"/>
  <path style="fill:#e1a98c" d="M223.571 25.321c-2.159.08-12.282-31.303-39.282-24.303-18.537 4.806-20.877 7.419-28.12 9.463-29.41-9.014-57.539 14.472-56.495 36.488 1.759 37.07-4.778 36.505-.295 49.454s8.466 23.407 8.466 23.407.996 3.565 2.988-16.854-4.705-31.379 11.137-31.379c52.452 0-19.698 20.372 13.952 20.372 33.391 0 59.203-27.381 74.92-29.372 15.716-1.992 9.145 19.96 11.137 40.379s2.988 16.854 2.988 16.854 8.92-9.712 8.466-23.407c-.51-15.454 6.37-71.704-9.862-71.102z"/>
  <path style="fill:#d2987b" d="M223.571 25.322c-2.159.08-12.282-31.303-39.282-24.303-8.808 2.284-13.956 4.071-17.714 5.539V84.84c18.759-8.259 33.769-20.913 44.268-22.243 15.716-1.992 9.145 19.96 11.137 40.379 1.992 20.419 2.988 16.854 2.988 16.854s8.92-9.712 8.466-23.407c-.511-15.454 6.369-71.704-9.863-71.101z"/>
  <g>
    <ellipse transform="rotate(-69.249 228.547 113.024)" style="fill:#edceae" cx="228.54" cy="113.021" rx="17.187" ry="10.048"/>
    <ellipse transform="rotate(69.249 104.191 113.032)" style="fill:#f3dbc4" cx="104.188" cy="113.029" rx="17.187" ry="10.048"/>
  </g>
</svg>